<svg width="107" height="13" viewBox="0 0 107 13" fill="none" xmlns="http://www.w3.org/2000/svg">
<path d="M10.0781 5.95312V6.67188C10.0781 7.52604 9.97135 8.29167 9.75781 8.96875C9.54427 9.64583 9.23698 10.2214 8.83594 10.6953C8.4349 11.1693 7.95312 11.5312 7.39062 11.7812C6.83333 12.0312 6.20833 12.1562 5.51562 12.1562C4.84375 12.1562 4.22656 12.0312 3.66406 11.7812C3.10677 11.5312 2.6224 11.1693 2.21094 10.6953C1.80469 10.2214 1.48958 9.64583 1.26562 8.96875C1.04167 8.29167 0.929688 7.52604 0.929688 6.67188V5.95312C0.929688 5.09896 1.03906 4.33594 1.25781 3.66406C1.48177 2.98698 1.79688 2.41146 2.20312 1.9375C2.60938 1.45833 3.09115 1.09375 3.64844 0.84375C4.21094 0.59375 4.82812 0.46875 5.5 0.46875C6.19271 0.46875 6.81771 0.59375 7.375 0.84375C7.9375 1.09375 8.41927 1.45833 8.82031 1.9375C9.22656 2.41146 9.53646 2.98698 9.75 3.66406C9.96875 4.33594 10.0781 5.09896 10.0781 5.95312ZM8.58594 6.67188V5.9375C8.58594 5.26042 8.51562 4.66146 8.375 4.14062C8.23958 3.61979 8.03906 3.18229 7.77344 2.82812C7.50781 2.47396 7.18229 2.20573 6.79688 2.02344C6.41667 1.84115 5.98438 1.75 5.5 1.75C5.03125 1.75 4.60677 1.84115 4.22656 2.02344C3.85156 2.20573 3.52865 2.47396 3.25781 2.82812C2.99219 3.18229 2.78646 3.61979 2.64062 4.14062C2.49479 4.66146 2.42188 5.26042 2.42188 5.9375V6.67188C2.42188 7.35417 2.49479 7.95833 2.64062 8.48438C2.78646 9.00521 2.99479 9.44531 3.26562 9.80469C3.54167 10.1589 3.86719 10.4271 4.24219 10.6094C4.6224 10.7917 5.04688 10.8828 5.51562 10.8828C6.00521 10.8828 6.4401 10.7917 6.82031 10.6094C7.20052 10.4271 7.52083 10.1589 7.78125 9.80469C8.04688 9.44531 8.2474 9.00521 8.38281 8.48438C8.51823 7.95833 8.58594 7.35417 8.58594 6.67188ZM18.8438 0.625H20.3438V8.32031C20.3438 9.17448 20.1536 9.88542 19.7734 10.4531C19.3932 11.0208 18.888 11.4479 18.2578 11.7344C17.6328 12.0156 16.9531 12.1562 16.2188 12.1562C15.4479 12.1562 14.75 12.0156 14.125 11.7344C13.5052 11.4479 13.013 11.0208 12.6484 10.4531C12.2891 9.88542 12.1094 9.17448 12.1094 8.32031V0.625H13.6016V8.32031C13.6016 8.91406 13.7109 9.40365 13.9297 9.78906C14.1484 10.1745 14.4531 10.4609 14.8438 10.6484C15.2396 10.8359 15.6979 10.9297 16.2188 10.9297C16.7448 10.9297 17.2031 10.8359 17.5938 10.6484C17.9896 10.4609 18.2969 10.1745 18.5156 9.78906C18.7344 9.40365 18.8438 8.91406 18.8438 8.32031V0.625ZM22.7109 0.625H26.4766C27.3307 0.625 28.0521 0.755208 28.6406 1.01562C29.2344 1.27604 29.6849 1.66146 29.9922 2.17188C30.3047 2.67708 30.4609 3.29948 30.4609 4.03906C30.4609 4.5599 30.3542 5.03646 30.1406 5.46875C29.9323 5.89583 29.6302 6.26042 29.2344 6.5625C28.8438 6.85938 28.375 7.08073 27.8281 7.22656L27.4062 7.39062H23.8672L23.8516 6.16406H26.5234C27.0651 6.16406 27.5156 6.07031 27.875 5.88281C28.2344 5.6901 28.5052 5.43229 28.6875 5.10938C28.8698 4.78646 28.9609 4.42969 28.9609 4.03906C28.9609 3.60156 28.875 3.21875 28.7031 2.89062C28.5312 2.5625 28.2604 2.3099 27.8906 2.13281C27.526 1.95052 27.0547 1.85938 26.4766 1.85938H24.2188V12H22.7109V0.625ZM29.3594 12L26.5938 6.84375L28.1641 6.83594L30.9688 11.9062V12H29.3594ZM42.6016 9.125C42.6016 8.85938 42.5599 8.625 42.4766 8.42188C42.3984 8.21354 42.2578 8.02604 42.0547 7.85938C41.8568 7.69271 41.5807 7.53385 41.2266 7.38281C40.8776 7.23177 40.4349 7.07812 39.8984 6.92188C39.3359 6.75521 38.8281 6.57031 38.375 6.36719C37.9219 6.15885 37.5339 5.92188 37.2109 5.65625C36.888 5.39062 36.6406 5.08594 36.4688 4.74219C36.2969 4.39844 36.2109 4.00521 36.2109 3.5625C36.2109 3.11979 36.3021 2.71094 36.4844 2.33594C36.6667 1.96094 36.9271 1.63542 37.2656 1.35938C37.6094 1.07812 38.0182 0.859375 38.4922 0.703125C38.9661 0.546875 39.4948 0.46875 40.0781 0.46875C40.9323 0.46875 41.6562 0.632812 42.25 0.960938C42.849 1.28385 43.3047 1.70833 43.6172 2.23438C43.9297 2.75521 44.0859 3.3125 44.0859 3.90625H42.5859C42.5859 3.47917 42.4948 3.10156 42.3125 2.77344C42.1302 2.4401 41.8542 2.17969 41.4844 1.99219C41.1146 1.79948 40.6458 1.70312 40.0781 1.70312C39.5417 1.70312 39.099 1.78385 38.75 1.94531C38.401 2.10677 38.1406 2.32552 37.9688 2.60156C37.8021 2.8776 37.7188 3.19271 37.7188 3.54688C37.7188 3.78646 37.7682 4.00521 37.8672 4.20312C37.9714 4.39583 38.1302 4.57552 38.3438 4.74219C38.5625 4.90885 38.8385 5.0625 39.1719 5.20312C39.5104 5.34375 39.9141 5.47917 40.3828 5.60938C41.0286 5.79167 41.5859 5.99479 42.0547 6.21875C42.5234 6.44271 42.9089 6.69531 43.2109 6.97656C43.5182 7.2526 43.7448 7.56771 43.8906 7.92188C44.0417 8.27083 44.1172 8.66667 44.1172 9.10938C44.1172 9.57292 44.0234 9.99219 43.8359 10.3672C43.6484 10.7422 43.3802 11.0625 43.0312 11.3281C42.6823 11.5938 42.263 11.7995 41.7734 11.9453C41.2891 12.0859 40.7474 12.1562 40.1484 12.1562C39.6224 12.1562 39.1042 12.0833 38.5938 11.9375C38.0885 11.7917 37.6276 11.5729 37.2109 11.2812C36.7995 10.9896 36.4688 10.6302 36.2188 10.2031C35.974 9.77083 35.8516 9.27083 35.8516 8.70312H37.3516C37.3516 9.09375 37.4271 9.42969 37.5781 9.71094C37.7292 9.98698 37.9349 10.2161 38.1953 10.3984C38.4609 10.5807 38.7604 10.7161 39.0938 10.8047C39.4323 10.888 39.7839 10.9297 40.1484 10.9297C40.6745 10.9297 41.1198 10.8568 41.4844 10.7109C41.849 10.5651 42.125 10.3568 42.3125 10.0859C42.5052 9.8151 42.6016 9.49479 42.6016 9.125ZM53.2656 10.7734V12H47.2422V10.7734H53.2656ZM47.5469 0.625V12H46.0391V0.625H47.5469ZM52.4688 5.51562V6.74219H47.2422V5.51562H52.4688ZM53.1875 0.625V1.85938H47.2422V0.625H53.1875ZM55.1328 0.625H58.8984C59.7526 0.625 60.474 0.755208 61.0625 1.01562C61.6562 1.27604 62.1068 1.66146 62.4141 2.17188C62.7266 2.67708 62.8828 3.29948 62.8828 4.03906C62.8828 4.5599 62.776 5.03646 62.5625 5.46875C62.3542 5.89583 62.0521 6.26042 61.6562 6.5625C61.2656 6.85938 60.7969 7.08073 60.25 7.22656L59.8281 7.39062H56.2891L56.2734 6.16406H58.9453C59.487 6.16406 59.9375 6.07031 60.2969 5.88281C60.6562 5.6901 60.9271 5.43229 61.1094 5.10938C61.2917 4.78646 61.3828 4.42969 61.3828 4.03906C61.3828 3.60156 61.2969 3.21875 61.125 2.89062C60.9531 2.5625 60.6823 2.3099 60.3125 2.13281C59.9479 1.95052 59.4766 1.85938 58.8984 1.85938H56.6406V12H55.1328V0.625ZM61.7812 12L59.0156 6.84375L60.5859 6.83594L63.3906 11.9062V12H61.7812ZM68.5078 10.2734L71.8594 0.625H73.4922L69.2812 12H68.1172L68.5078 10.2734ZM65.375 0.625L68.6953 10.2734L69.1094 12H67.9453L63.7422 0.625H65.375ZM76.6406 0.625V12H75.1328V0.625H76.6406ZM86.25 8.38281H87.75C87.6719 9.10156 87.4661 9.74479 87.1328 10.3125C86.7995 10.8802 86.3281 11.3307 85.7188 11.6641C85.1094 11.9922 84.349 12.1562 83.4375 12.1562C82.7708 12.1562 82.1641 12.0312 81.6172 11.7812C81.0755 11.5312 80.6094 11.1771 80.2188 10.7188C79.8281 10.2552 79.526 9.70052 79.3125 9.05469C79.1042 8.40365 79 7.67969 79 6.88281V5.75C79 4.95312 79.1042 4.23177 79.3125 3.58594C79.526 2.9349 79.8307 2.3776 80.2266 1.91406C80.6276 1.45052 81.1094 1.09375 81.6719 0.84375C82.2344 0.59375 82.8672 0.46875 83.5703 0.46875C84.4297 0.46875 85.1562 0.630208 85.75 0.953125C86.3438 1.27604 86.8047 1.72396 87.1328 2.29688C87.4661 2.86458 87.6719 3.52344 87.75 4.27344H86.25C86.1771 3.74219 86.0417 3.28646 85.8438 2.90625C85.6458 2.52083 85.3646 2.22396 85 2.01562C84.6354 1.80729 84.1589 1.70312 83.5703 1.70312C83.0651 1.70312 82.6198 1.79948 82.2344 1.99219C81.8542 2.1849 81.5339 2.45833 81.2734 2.8125C81.0182 3.16667 80.8255 3.59115 80.6953 4.08594C80.5651 4.58073 80.5 5.13021 80.5 5.73438V6.88281C80.5 7.4401 80.5573 7.96354 80.6719 8.45312C80.7917 8.94271 80.9714 9.3724 81.2109 9.74219C81.4505 10.112 81.7552 10.4036 82.125 10.6172C82.4948 10.8255 82.9323 10.9297 83.4375 10.9297C84.0781 10.9297 84.5885 10.8281 84.9688 10.625C85.349 10.4219 85.6354 10.1302 85.8281 9.75C86.026 9.36979 86.1667 8.91406 86.25 8.38281ZM97.0312 10.7734V12H91.0078V10.7734H97.0312ZM91.3125 0.625V12H89.8047V0.625H91.3125ZM96.2344 5.51562V6.74219H91.0078V5.51562H96.2344ZM96.9531 0.625V1.85938H91.0078V0.625H96.9531ZM104.961 9.125C104.961 8.85938 104.919 8.625 104.836 8.42188C104.758 8.21354 104.617 8.02604 104.414 7.85938C104.216 7.69271 103.94 7.53385 103.586 7.38281C103.237 7.23177 102.794 7.07812 102.258 6.92188C101.695 6.75521 101.188 6.57031 100.734 6.36719C100.281 6.15885 99.8932 5.92188 99.5703 5.65625C99.2474 5.39062 99 5.08594 98.8281 4.74219C98.6562 4.39844 98.5703 4.00521 98.5703 3.5625C98.5703 3.11979 98.6615 2.71094 98.8438 2.33594C99.026 1.96094 99.2865 1.63542 99.625 1.35938C99.9688 1.07812 100.378 0.859375 100.852 0.703125C101.326 0.546875 101.854 0.46875 102.438 0.46875C103.292 0.46875 104.016 0.632812 104.609 0.960938C105.208 1.28385 105.664 1.70833 105.977 2.23438C106.289 2.75521 106.445 3.3125 106.445 3.90625H104.945C104.945 3.47917 104.854 3.10156 104.672 2.77344C104.49 2.4401 104.214 2.17969 103.844 1.99219C103.474 1.79948 103.005 1.70312 102.438 1.70312C101.901 1.70312 101.458 1.78385 101.109 1.94531C100.76 2.10677 100.5 2.32552 100.328 2.60156C100.161 2.8776 100.078 3.19271 100.078 3.54688C100.078 3.78646 100.128 4.00521 100.227 4.20312C100.331 4.39583 100.49 4.57552 100.703 4.74219C100.922 4.90885 101.198 5.0625 101.531 5.20312C101.87 5.34375 102.273 5.47917 102.742 5.60938C103.388 5.79167 103.945 5.99479 104.414 6.21875C104.883 6.44271 105.268 6.69531 105.57 6.97656C105.878 7.2526 106.104 7.56771 106.25 7.92188C106.401 8.27083 106.477 8.66667 106.477 9.10938C106.477 9.57292 106.383 9.99219 106.195 10.3672C106.008 10.7422 105.74 11.0625 105.391 11.3281C105.042 11.5938 104.622 11.7995 104.133 11.9453C103.648 12.0859 103.107 12.1562 102.508 12.1562C101.982 12.1562 101.464 12.0833 100.953 11.9375C100.448 11.7917 99.987 11.5729 99.5703 11.2812C99.1589 10.9896 98.8281 10.6302 98.5781 10.2031C98.3333 9.77083 98.2109 9.27083 98.2109 8.70312H99.7109C99.7109 9.09375 99.7865 9.42969 99.9375 9.71094C100.089 9.98698 100.294 10.2161 100.555 10.3984C100.82 10.5807 101.12 10.7161 101.453 10.8047C101.792 10.888 102.143 10.9297 102.508 10.9297C103.034 10.9297 103.479 10.8568 103.844 10.7109C104.208 10.5651 104.484 10.3568 104.672 10.0859C104.865 9.8151 104.961 9.49479 104.961 9.125Z" fill="#7690A8"/>
</svg>
