<svg width="377" height="46" viewBox="0 0 374 37" fill="none" xmlns="http://www.w3.org/2000/svg">
<path d="M9.96 29L0.08 0.799998H4.32L11.88 23L19.64 0.799998H22.8L30.48 23.24L38.2 0.799998H42.24L32.28 29H28.8L21.16 7.08L13.44 29H9.96ZM53.075 29.36C49.875 29.36 47.355 28.4667 45.515 26.68C43.675 24.8667 42.755 22.4 42.755 19.28C42.755 17.28 43.155 15.52 43.955 14C44.7817 12.4533 45.915 11.2533 47.355 10.4C48.795 9.54667 50.4483 9.12 52.315 9.12C55.0083 9.12 57.1283 9.98667 58.675 11.72C60.2217 13.4267 60.995 15.7867 60.995 18.8V20.16H46.675C46.9683 24.2133 49.115 26.24 53.115 26.24C54.235 26.24 55.3283 26.0667 56.395 25.72C57.4883 25.3733 58.515 24.8 59.475 24L60.675 26.8C59.795 27.6 58.6617 28.2267 57.275 28.68C55.8883 29.1333 54.4883 29.36 53.075 29.36ZM52.475 11.96C50.795 11.96 49.4617 12.48 48.475 13.52C47.4883 14.56 46.8883 15.9467 46.675 17.68H57.595C57.515 15.8667 57.035 14.4667 56.155 13.48C55.275 12.4667 54.0483 11.96 52.475 11.96ZM86.7872 29.36C85.2939 29.36 83.9739 29.0267 82.8272 28.36C81.6805 27.6933 80.8272 26.8 80.2672 25.68V29H76.3072V0.799998H80.3472V12.64C80.9339 11.5733 81.7872 10.72 82.9072 10.08C84.0539 9.44 85.3472 9.12 86.7872 9.12C88.5205 9.12 90.0272 9.53333 91.3072 10.36C92.6139 11.1867 93.6139 12.36 94.3072 13.88C95.0272 15.3733 95.3872 17.16 95.3872 19.24C95.3872 21.32 95.0272 23.12 94.3072 24.64C93.6139 26.16 92.6139 27.3333 91.3072 28.16C90.0272 28.96 88.5205 29.36 86.7872 29.36ZM85.7872 26.24C87.4672 26.24 88.8005 25.64 89.7872 24.44C90.8005 23.24 91.3072 21.5067 91.3072 19.24C91.3072 16.9733 90.8005 15.2533 89.7872 14.08C88.8005 12.88 87.4672 12.28 85.7872 12.28C84.1072 12.28 82.7605 12.88 81.7472 14.08C80.7605 15.2533 80.2672 16.9733 80.2672 19.24C80.2672 21.5067 80.7605 23.24 81.7472 24.44C82.7605 25.64 84.1072 26.24 85.7872 26.24ZM107.1 29.36C102.38 29.36 100.02 26.7333 100.02 21.48V9.48H104.06V21.52C104.06 23.0933 104.38 24.2533 105.02 25C105.66 25.7467 106.673 26.12 108.06 26.12C109.58 26.12 110.807 25.6133 111.74 24.6C112.7 23.5867 113.18 22.2267 113.18 20.52V9.48H117.22V29H113.3V25.88C112.66 27.0267 111.807 27.8933 110.74 28.48C109.673 29.0667 108.46 29.36 107.1 29.36ZM122.753 4.96V0.759999H127.473V4.96H122.753ZM123.113 29V9.48H127.153V29H123.113ZM139.4 29.36C137.267 29.36 135.667 28.76 134.6 27.56C133.56 26.36 133.04 24.6 133.04 22.28V0.799998H137.08V22.04C137.08 24.68 138.16 26 140.32 26C140.64 26 140.933 25.9867 141.2 25.96C141.493 25.9333 141.787 25.88 142.08 25.8L142 29.04C141.093 29.2533 140.227 29.36 139.4 29.36ZM152.711 29.36C151.005 29.36 149.498 28.96 148.191 28.16C146.911 27.3333 145.911 26.16 145.191 24.64C144.471 23.12 144.111 21.32 144.111 19.24C144.111 17.16 144.471 15.3733 145.191 13.88C145.911 12.36 146.911 11.1867 148.191 10.36C149.471 9.53333 150.978 9.12 152.711 9.12C154.178 9.12 155.485 9.44 156.631 10.08C157.778 10.72 158.631 11.5867 159.191 12.68V0.799998H163.231V29H159.271V25.6C158.711 26.7733 157.845 27.6933 156.671 28.36C155.525 29.0267 154.205 29.36 152.711 29.36ZM153.751 26.24C155.405 26.24 156.738 25.64 157.751 24.44C158.765 23.24 159.271 21.5067 159.271 19.24C159.271 16.9733 158.765 15.2533 157.751 14.08C156.738 12.88 155.405 12.28 153.751 12.28C152.071 12.28 150.725 12.88 149.711 14.08C148.698 15.2533 148.191 16.9733 148.191 19.24C148.191 21.5067 148.698 23.24 149.711 24.44C150.725 25.64 152.071 26.24 153.751 26.24ZM188.972 29.36C185.772 29.36 183.252 28.4667 181.412 26.68C179.572 24.8667 178.652 22.4 178.652 19.28C178.652 17.28 179.052 15.52 179.852 14C180.679 12.4533 181.812 11.2533 183.252 10.4C184.692 9.54667 186.345 9.12 188.212 9.12C190.905 9.12 193.025 9.98667 194.572 11.72C196.119 13.4267 196.892 15.7867 196.892 18.8V20.16H182.572C182.865 24.2133 185.012 26.24 189.012 26.24C190.132 26.24 191.225 26.0667 192.292 25.72C193.385 25.3733 194.412 24.8 195.372 24L196.572 26.8C195.692 27.6 194.559 28.2267 193.172 28.68C191.785 29.1333 190.385 29.36 188.972 29.36ZM188.372 11.96C186.692 11.96 185.359 12.48 184.372 13.52C183.385 14.56 182.785 15.9467 182.572 17.68H193.492C193.412 15.8667 192.932 14.4667 192.052 13.48C191.172 12.4667 189.945 11.96 188.372 11.96ZM198.74 29L206.86 18.92L199.26 9.48H203.98L209.22 16.16L214.46 9.48H219.18L211.54 18.96L219.7 29H214.9L209.18 21.8L203.5 29H198.74ZM222.907 36.2V9.48H226.867V12.8C227.427 11.68 228.281 10.7867 229.427 10.12C230.574 9.45333 231.894 9.12 233.387 9.12C235.121 9.12 236.627 9.53333 237.907 10.36C239.214 11.1867 240.214 12.36 240.907 13.88C241.627 15.3733 241.987 17.16 241.987 19.24C241.987 21.32 241.627 23.12 240.907 24.64C240.214 26.16 239.214 27.3333 237.907 28.16C236.627 28.96 235.121 29.36 233.387 29.36C231.947 29.36 230.654 29.0533 229.507 28.44C228.387 27.8 227.534 26.9333 226.947 25.84V36.2H222.907ZM232.387 26.24C234.067 26.24 235.401 25.64 236.387 24.44C237.401 23.24 237.907 21.5067 237.907 19.24C237.907 16.9733 237.401 15.2533 236.387 14.08C235.401 12.88 234.067 12.28 232.387 12.28C230.707 12.28 229.361 12.88 228.347 14.08C227.361 15.2533 226.867 16.9733 226.867 19.24C226.867 21.5067 227.361 23.24 228.347 24.44C229.361 25.64 230.707 26.24 232.387 26.24ZM255.9 29.36C252.7 29.36 250.18 28.4667 248.34 26.68C246.5 24.8667 245.58 22.4 245.58 19.28C245.58 17.28 245.98 15.52 246.78 14C247.607 12.4533 248.74 11.2533 250.18 10.4C251.62 9.54667 253.273 9.12 255.14 9.12C257.833 9.12 259.953 9.98667 261.5 11.72C263.047 13.4267 263.82 15.7867 263.82 18.8V20.16H249.5C249.793 24.2133 251.94 26.24 255.94 26.24C257.06 26.24 258.153 26.0667 259.22 25.72C260.313 25.3733 261.34 24.8 262.3 24L263.5 26.8C262.62 27.6 261.487 28.2267 260.1 28.68C258.713 29.1333 257.313 29.36 255.9 29.36ZM255.3 11.96C253.62 11.96 252.287 12.48 251.3 13.52C250.313 14.56 249.713 15.9467 249.5 17.68H260.42C260.34 15.8667 259.86 14.4667 258.98 13.48C258.1 12.4667 256.873 11.96 255.3 11.96ZM268.424 29V9.48H272.344V12.96C273.358 10.64 275.464 9.34667 278.664 9.08L279.984 9L280.264 12.44L277.824 12.68C274.278 13.0267 272.504 14.8533 272.504 18.16V29H268.424ZM283.186 4.96V0.759999H287.906V4.96H283.186ZM283.546 29V9.48H287.586V29H283.546ZM302.633 29.36C299.433 29.36 296.913 28.4667 295.073 26.68C293.233 24.8667 292.313 22.4 292.313 19.28C292.313 17.28 292.713 15.52 293.513 14C294.339 12.4533 295.473 11.2533 296.913 10.4C298.353 9.54667 300.006 9.12 301.873 9.12C304.566 9.12 306.686 9.98667 308.233 11.72C309.779 13.4267 310.553 15.7867 310.553 18.8V20.16H296.233C296.526 24.2133 298.673 26.24 302.673 26.24C303.793 26.24 304.886 26.0667 305.953 25.72C307.046 25.3733 308.073 24.8 309.033 24L310.233 26.8C309.353 27.6 308.219 28.2267 306.833 28.68C305.446 29.1333 304.046 29.36 302.633 29.36ZM302.033 11.96C300.353 11.96 299.019 12.48 298.033 13.52C297.046 14.56 296.446 15.9467 296.233 17.68H307.153C307.073 15.8667 306.593 14.4667 305.713 13.48C304.833 12.4667 303.606 11.96 302.033 11.96ZM315.157 29V9.48H319.077V12.72C319.744 11.5467 320.651 10.6533 321.797 10.04C322.971 9.42667 324.277 9.12 325.717 9.12C330.331 9.12 332.637 11.7333 332.637 16.96V29H328.597V17.2C328.597 15.52 328.264 14.2933 327.597 13.52C326.957 12.7467 325.944 12.36 324.557 12.36C322.931 12.36 321.624 12.88 320.637 13.92C319.677 14.9333 319.197 16.28 319.197 17.96V29H315.157ZM347.004 29.36C345.004 29.36 343.271 28.9467 341.804 28.12C340.364 27.2667 339.244 26.08 338.444 24.56C337.644 23.0133 337.244 21.2 337.244 19.12C337.244 16.0267 338.124 13.5867 339.884 11.8C341.644 10.0133 344.017 9.12 347.004 9.12C348.231 9.12 349.444 9.33333 350.644 9.76C351.844 10.1867 352.831 10.7733 353.604 11.52L352.324 14.36C351.577 13.6667 350.751 13.16 349.844 12.84C348.964 12.4933 348.124 12.32 347.324 12.32C345.431 12.32 343.964 12.92 342.924 14.12C341.911 15.2933 341.404 16.9733 341.404 19.16C341.404 21.3467 341.911 23.0667 342.924 24.32C343.964 25.5467 345.431 26.16 347.324 26.16C348.124 26.16 348.964 26 349.844 25.68C350.751 25.3333 351.577 24.8133 352.324 24.12L353.604 27C352.831 27.72 351.831 28.2933 350.604 28.72C349.404 29.1467 348.204 29.36 347.004 29.36ZM366.045 29.36C362.845 29.36 360.325 28.4667 358.485 26.68C356.645 24.8667 355.725 22.4 355.725 19.28C355.725 17.28 356.125 15.52 356.925 14C357.752 12.4533 358.885 11.2533 360.325 10.4C361.765 9.54667 363.419 9.12 365.285 9.12C367.979 9.12 370.099 9.98667 371.645 11.72C373.192 13.4267 373.965 15.7867 373.965 18.8V20.16H359.645C359.939 24.2133 362.085 26.24 366.085 26.24C367.205 26.24 368.299 26.0667 369.365 25.72C370.459 25.3733 371.485 24.8 372.445 24L373.645 26.8C372.765 27.6 371.632 28.2267 370.245 28.68C368.859 29.1333 367.459 29.36 366.045 29.36ZM365.445 11.96C363.765 11.96 362.432 12.48 361.445 13.52C360.459 14.56 359.859 15.9467 359.645 17.68H370.565C370.485 15.8667 370.005 14.4667 369.125 13.48C368.245 12.4667 367.019 11.96 365.445 11.96Z" fill="#16133D"/>
</svg>
