
<svg width="35" height="35" viewBox="-0.564 -0.994 36 36" fill="none" style="" xmlns="http://www.w3.org/2000/svg">
  <path d="M 25.064 8.716 Z M 10.285 32.001 C 13.242 32.001 15.904 30.351 17.286 27.859 C 18.668 30.351 21.329 32.001 24.285 32.001 C 28.698 32.001 32.286 28.403 32.286 23.981 C 32.286 21.019 30.695 18.391 28.226 17.001 C 30.695 15.611 32.286 12.983 32.286 10.021 C 32.286 5.599 28.698 2.001 24.285 2.001 C 21.329 2.001 18.668 3.651 17.286 6.144 C 15.904 3.651 13.242 2.001 10.285 2.001 C 5.872 2.001 2.286 5.599 2.286 10.021 C 2.286 12.983 3.877 15.611 6.345 17.001 C 3.877 18.391 2.286 21.019 2.286 23.981 C 2.286 28.403 5.872 32.001 10.285 32.001 Z" fill="none" stroke-width="3" stroke="#50C878" style="transform-origin: 17.286px 17.001px;"/>
</svg>